<svg width="50" height="50" viewBox="0 0 50 50" fill="none" xmlns="http://www.w3.org/2000/svg">
<circle cx="25" cy="25" r="24.5" fill="#FFD3D3" stroke="#E7E7E7"/>
<circle cx="25" cy="25" r="20" fill="#F9BDBD"/>
<path d="M11 15.5L18.7894 24.386" stroke="#EE2222" stroke-width="2"/>
<line x1="17.9225" y1="24.1099" x2="23.6765" y2="18.4627" stroke="#EE2222" stroke-width="2"/>
<path d="M32.9095 31.9959C33.4595 32.0459 33.9459 31.6406 33.9959 31.0905L34.8107 22.1275C34.8607 21.5775 34.4554 21.0911 33.9054 21.0411C33.3553 20.9911 32.8689 21.3964 32.8189 21.9464L32.0946 29.9136L24.1275 29.1893C23.5775 29.1393 23.0911 29.5446 23.0411 30.0946C22.9911 30.6447 23.3964 31.1311 23.9464 31.1811L32.9095 31.9959ZM22.2318 19.6402L32.2318 31.6402L33.7682 30.3598L23.7682 18.3598L22.2318 19.6402Z" fill="#EE2222"/>
</svg>
